%TF.GenerationSoftware,Altium Limited,Altium Designer,25.8.1 (18)*%
G04 Layer_Color=255*
%FSLAX45Y45*%
%MOMM*%
%TF.SameCoordinates,DBAD572D-54B9-4E5B-BD18-095DBB1A99D2*%
%TF.FilePolarity,Positive*%
%TF.FileFunction,Pads,Bot*%
%TF.Part,Single*%
G01*
G75*
%TA.AperFunction,SMDPad,CuDef*%
%ADD15R,0.65000X0.90000*%
%ADD16R,0.98000X0.88000*%
G04:AMPARAMS|DCode=23|XSize=1mm|YSize=1mm|CornerRadius=0.5mm|HoleSize=0mm|Usage=FLASHONLY|Rotation=0.000|XOffset=0mm|YOffset=0mm|HoleType=Round|Shape=RoundedRectangle|*
%AMROUNDEDRECTD23*
21,1,1.00000,0.00000,0,0,0.0*
21,1,0.00000,1.00000,0,0,0.0*
1,1,1.00000,0.00000,0.00000*
1,1,1.00000,0.00000,0.00000*
1,1,1.00000,0.00000,0.00000*
1,1,1.00000,0.00000,0.00000*
%
%ADD23ROUNDEDRECTD23*%
G04:AMPARAMS|DCode=24|XSize=1mm|YSize=1mm|CornerRadius=0.5mm|HoleSize=0mm|Usage=FLASHONLY|Rotation=300.000|XOffset=0mm|YOffset=0mm|HoleType=Round|Shape=RoundedRectangle|*
%AMROUNDEDRECTD24*
21,1,1.00000,0.00000,0,0,300.0*
21,1,0.00000,1.00000,0,0,300.0*
1,1,1.00000,0.00000,0.00000*
1,1,1.00000,0.00000,0.00000*
1,1,1.00000,0.00000,0.00000*
1,1,1.00000,0.00000,0.00000*
%
%ADD24ROUNDEDRECTD24*%
G04:AMPARAMS|DCode=26|XSize=1mm|YSize=1mm|CornerRadius=0.5mm|HoleSize=0mm|Usage=FLASHONLY|Rotation=240.000|XOffset=0mm|YOffset=0mm|HoleType=Round|Shape=RoundedRectangle|*
%AMROUNDEDRECTD26*
21,1,1.00000,0.00000,0,0,240.0*
21,1,0.00000,1.00000,0,0,240.0*
1,1,1.00000,0.00000,0.00000*
1,1,1.00000,0.00000,0.00000*
1,1,1.00000,0.00000,0.00000*
1,1,1.00000,0.00000,0.00000*
%
%ADD26ROUNDEDRECTD26*%
%ADD28R,0.78000X0.98000*%
%TA.AperFunction,ComponentPad*%
%ADD30O,1.50000X3.00000*%
%ADD31C,1.42500*%
%ADD32R,1.42500X1.42500*%
%ADD33R,1.42500X1.42500*%
%ADD34C,0.50000*%
%ADD35R,1.72500X1.72500*%
%ADD36C,1.72500*%
%ADD37R,1.72500X1.72500*%
%TA.AperFunction,SMDPad,CuDef*%
%ADD39R,2.30000X1.80000*%
%ADD40R,1.02000X1.47000*%
%ADD41R,1.30000X0.95000*%
%ADD42R,1.90000X0.40005*%
%ADD43R,0.55880X0.55880*%
%ADD44R,0.90000X0.65000*%
%ADD45R,0.98000X0.78000*%
%ADD46R,0.55880X0.55880*%
%ADD47R,0.85000X0.30000*%
%ADD48R,0.30000X0.85000*%
%ADD49R,1.00000X0.80000*%
%ADD50R,5.70000X5.70000*%
%ADD51R,0.95000X1.30000*%
D15*
X-762002Y-1219202D02*
D03*
X-907000D02*
D03*
D16*
X-660402Y672601D02*
D03*
Y546601D02*
D03*
D23*
X-826010Y-1431012D02*
D03*
X-1239014Y-715012D02*
D03*
X1239010Y715008D02*
D03*
D24*
X1651989Y-2D02*
D03*
X-1651992D02*
D03*
X-1239014Y715008D02*
D03*
X1239010Y-716012D02*
D03*
D26*
X826006Y-1431012D02*
D03*
D28*
X438001Y-609602D02*
D03*
X578001D02*
D03*
X488801Y355598D02*
D03*
X628801D02*
D03*
D30*
X564401Y-1326801D02*
D03*
X-575601D02*
D03*
D31*
X1371600Y406400D02*
D03*
Y152400D02*
D03*
Y-101600D02*
D03*
X863598Y-863602D02*
D03*
D32*
X1371600Y-355600D02*
D03*
D33*
X863598Y-1117602D02*
D03*
D34*
X-230598Y-1326801D02*
D03*
X219398D02*
D03*
D35*
X-1168402Y-254002D02*
D03*
D36*
Y-2D02*
D03*
Y253998D02*
D03*
D37*
X1117600Y254000D02*
D03*
D39*
X-609602Y972600D02*
D03*
Y1262602D02*
D03*
D40*
X478798Y-152402D02*
D03*
X638798D02*
D03*
D41*
X457198Y-355602D02*
D03*
X637198D02*
D03*
D42*
X558798Y-743612D02*
D03*
Y-863602D02*
D03*
Y-983591D02*
D03*
D43*
X520698Y-2D02*
D03*
X609598D02*
D03*
D44*
X-587900Y275700D02*
D03*
Y130702D02*
D03*
D45*
X-508002Y539601D02*
D03*
Y679601D02*
D03*
X-304802Y1187601D02*
D03*
X-558802Y-1054401D02*
D03*
X-304802Y1047601D02*
D03*
X-558802Y-914402D02*
D03*
D46*
X-152402Y-209552D02*
D03*
X50798D02*
D03*
Y-298452D02*
D03*
X-50802Y-209552D02*
D03*
Y-298452D02*
D03*
X-152402D02*
D03*
X152398Y-209552D02*
D03*
X253998D02*
D03*
Y-298452D02*
D03*
X152398D02*
D03*
D47*
X294201Y-637801D02*
D03*
Y-537801D02*
D03*
Y-587798D02*
D03*
X-395800Y-1087802D02*
D03*
Y-837800D02*
D03*
X294201D02*
D03*
X-395800Y-537801D02*
D03*
Y-587798D02*
D03*
Y-637801D02*
D03*
Y-687798D02*
D03*
Y-737800D02*
D03*
Y-787798D02*
D03*
Y-887798D02*
D03*
Y-937800D02*
D03*
Y-987797D02*
D03*
Y-1037800D02*
D03*
X294201Y-1087802D02*
D03*
Y-1037800D02*
D03*
Y-987797D02*
D03*
Y-937800D02*
D03*
Y-887798D02*
D03*
Y-787798D02*
D03*
Y-737800D02*
D03*
Y-687798D02*
D03*
D48*
X-275800Y-1157800D02*
D03*
X-325797D02*
D03*
X224199Y-467798D02*
D03*
X174202D02*
D03*
X124199D02*
D03*
X74202D02*
D03*
X24199D02*
D03*
X-25798D02*
D03*
X-75800D02*
D03*
X-125798D02*
D03*
X-175800D02*
D03*
X-225798D02*
D03*
X-275800D02*
D03*
X-325797D02*
D03*
X-225798Y-1157800D02*
D03*
X-175800D02*
D03*
X-125798D02*
D03*
X-75800D02*
D03*
X-25798D02*
D03*
X24199D02*
D03*
X74202D02*
D03*
X124199D02*
D03*
X174202D02*
D03*
X224199D02*
D03*
D49*
X-863602Y-74998D02*
D03*
Y75000D02*
D03*
D50*
X-50802Y-812802D02*
D03*
D51*
X-762002Y-1016002D02*
D03*
Y-836002D02*
D03*
%TF.MD5,bbc195fde7d75f991c8604f77959418b*%
M02*
