%TF.GenerationSoftware,Altium Limited,Altium Designer,25.8.1 (18)*%
G04 Layer_Physical_Order=1*
G04 Layer_Color=255*
%FSLAX45Y45*%
%MOMM*%
%TF.SameCoordinates,DBAD572D-54B9-4E5B-BD18-095DBB1A99D2*%
%TF.FilePolarity,Positive*%
%TF.FileFunction,Copper,L1,Top,Signal*%
%TF.Part,Single*%
G01*
G75*
%TA.AperFunction,SMDPad,CuDef*%
%ADD10R,0.45720X1.16840*%
%TA.AperFunction,ConnectorPad*%
%ADD11R,1.50000X0.90000*%
%TA.AperFunction,SMDPad,CuDef*%
%ADD12R,0.80000X0.80000*%
%TA.AperFunction,BGAPad,CuDef*%
%ADD13R,0.90000X0.90000*%
%TA.AperFunction,SMDPad,CuDef*%
%ADD14R,1.16840X0.45720*%
%ADD15R,0.65000X0.90000*%
%ADD16R,0.98000X0.88000*%
%TA.AperFunction,ConnectorPad*%
%ADD17R,1.20000X2.00000*%
%TA.AperFunction,SMDPad,CuDef*%
%ADD18R,0.94000X0.73000*%
%ADD19R,0.73000X0.94000*%
%ADD20R,0.60000X0.80000*%
%TA.AperFunction,ConnectorPad*%
%ADD21R,0.90000X1.50000*%
%TA.AperFunction,SMDPad,CuDef*%
%ADD22R,1.05000X1.00000*%
G04:AMPARAMS|DCode=23|XSize=1mm|YSize=1mm|CornerRadius=0.5mm|HoleSize=0mm|Usage=FLASHONLY|Rotation=0.000|XOffset=0mm|YOffset=0mm|HoleType=Round|Shape=RoundedRectangle|*
%AMROUNDEDRECTD23*
21,1,1.00000,0.00000,0,0,0.0*
21,1,0.00000,1.00000,0,0,0.0*
1,1,1.00000,0.00000,0.00000*
1,1,1.00000,0.00000,0.00000*
1,1,1.00000,0.00000,0.00000*
1,1,1.00000,0.00000,0.00000*
%
%ADD23ROUNDEDRECTD23*%
G04:AMPARAMS|DCode=24|XSize=1mm|YSize=1mm|CornerRadius=0.5mm|HoleSize=0mm|Usage=FLASHONLY|Rotation=300.000|XOffset=0mm|YOffset=0mm|HoleType=Round|Shape=RoundedRectangle|*
%AMROUNDEDRECTD24*
21,1,1.00000,0.00000,0,0,300.0*
21,1,0.00000,1.00000,0,0,300.0*
1,1,1.00000,0.00000,0.00000*
1,1,1.00000,0.00000,0.00000*
1,1,1.00000,0.00000,0.00000*
1,1,1.00000,0.00000,0.00000*
%
%ADD24ROUNDEDRECTD24*%
%ADD25R,0.88000X0.98000*%
G04:AMPARAMS|DCode=26|XSize=1mm|YSize=1mm|CornerRadius=0.5mm|HoleSize=0mm|Usage=FLASHONLY|Rotation=240.000|XOffset=0mm|YOffset=0mm|HoleType=Round|Shape=RoundedRectangle|*
%AMROUNDEDRECTD26*
21,1,1.00000,0.00000,0,0,240.0*
21,1,0.00000,1.00000,0,0,240.0*
1,1,1.00000,0.00000,0.00000*
1,1,1.00000,0.00000,0.00000*
1,1,1.00000,0.00000,0.00000*
1,1,1.00000,0.00000,0.00000*
%
%ADD26ROUNDEDRECTD26*%
%ADD27R,1.00000X1.05000*%
%ADD28R,0.78000X0.98000*%
%TA.AperFunction,Conductor*%
%ADD29C,0.25400*%
%TA.AperFunction,ComponentPad*%
%ADD30O,1.50000X3.00000*%
%ADD31C,1.42500*%
%ADD32R,1.42500X1.42500*%
%ADD33R,1.42500X1.42500*%
%ADD34C,0.50000*%
%ADD35R,1.72500X1.72500*%
%ADD36C,1.72500*%
%ADD37R,1.72500X1.72500*%
%TA.AperFunction,ViaPad*%
%ADD38C,1.27000*%
G36*
X-963200Y-1342424D02*
X-949010Y-1333713D01*
X-917980Y-1321624D01*
X-885294Y-1315253D01*
X-851996Y-1314805D01*
X-819150Y-1320293D01*
X-787806Y-1331542D01*
X-758966Y-1348192D01*
X-733552Y-1369712D01*
X-712377Y-1395414D01*
X-696116Y-1424475D01*
X-685290Y-1455968D01*
X-680245Y-1488885D01*
X-680694Y-1505529D01*
D01*
X-868900Y-1505302D01*
X-963200Y-1342424D01*
D02*
G37*
G36*
X-1440820Y-514207D02*
X-1422047Y-502916D01*
X-1381401Y-486560D01*
X-1338679Y-476842D01*
X-1294958Y-474006D01*
X-1251338Y-478123D01*
X-1208920Y-489091D01*
X-1168771Y-506632D01*
X-1131904Y-530306D01*
X-1099246Y-559514D01*
X-1071623Y-593522D01*
X-1049728Y-631472D01*
X-1034114Y-672409D01*
X-1025174Y-715301D01*
X-1023133Y-759067D01*
X-1028043Y-802604D01*
X-1039781Y-844816D01*
X-1058049Y-884639D01*
X-1082389Y-921070D01*
X-1112186Y-953190D01*
X-1146691Y-980191D01*
X-1165862Y-990792D01*
Y-990791D01*
X-1440820Y-514207D01*
D02*
G37*
G36*
X-1643868Y163105D02*
X-1629230Y155171D01*
X-1603245Y134344D01*
X-1581385Y109222D01*
X-1564347Y80609D01*
X-1552677Y49420D01*
X-1546747Y16650D01*
Y-16651D01*
X-1552677Y-49420D01*
X-1564347Y-80609D01*
X-1581385Y-109222D01*
X-1603245Y-134344D01*
X-1629230Y-155172D01*
X-1643868Y-163106D01*
Y-163105D01*
X-1737775Y0D01*
X-1643868Y163105D01*
D02*
G37*
G36*
X-1166017Y989180D02*
X-1146853Y978567D01*
X-1112365Y951545D01*
X-1082587Y919406D01*
X-1058270Y882960D01*
X-1040027Y843126D01*
X-1028316Y800906D01*
X-1023433Y757366D01*
X-1025501Y713601D01*
X-1034468Y670715D01*
X-1050107Y629788D01*
X-1072026Y591851D01*
X-1099671Y557861D01*
X-1132346Y528673D01*
X-1169228Y505023D01*
X-1209388Y487506D01*
X-1251813Y476565D01*
X-1295435Y472475D01*
X-1339155Y475338D01*
X-1381871Y485083D01*
X-1422507Y501465D01*
X-1441273Y512767D01*
X-1441272Y512768D01*
X-1166017Y989180D01*
D02*
G37*
G36*
X680694Y-1505529D02*
X680245Y-1488885D01*
X685290Y-1455968D01*
X696116Y-1424475D01*
X712377Y-1395414D01*
X733552Y-1369712D01*
X758966Y-1348192D01*
X787806Y-1331542D01*
X819150Y-1320293D01*
X851996Y-1314805D01*
X885294Y-1315253D01*
X917980Y-1321624D01*
X949010Y-1333713D01*
X963200Y-1342424D01*
D01*
X868900Y-1505302D01*
X680694Y-1505529D01*
D02*
G37*
G36*
X1166013Y-991185D02*
X1146849Y-980572D01*
X1112361Y-953550D01*
X1082584Y-921411D01*
X1058267Y-884965D01*
X1040023Y-845130D01*
X1028312Y-802911D01*
X1023429Y-759371D01*
X1025497Y-715606D01*
X1034464Y-672720D01*
X1050104Y-631793D01*
X1072022Y-593856D01*
X1099667Y-559866D01*
X1132342Y-530678D01*
X1169224Y-507027D01*
X1209384Y-489511D01*
X1251810Y-478570D01*
X1295431Y-474480D01*
X1339151Y-477343D01*
X1381867Y-487088D01*
X1422503Y-503470D01*
X1441269Y-514772D01*
D01*
X1166013Y-991185D01*
D02*
G37*
G36*
X1643868Y-163106D02*
X1629229Y-155172D01*
X1603245Y-134344D01*
X1581384Y-109222D01*
X1564347Y-80609D01*
X1552677Y-49420D01*
X1546747Y-16651D01*
Y16650D01*
X1552677Y49420D01*
X1564347Y80609D01*
X1581384Y109222D01*
X1603245Y134344D01*
X1629229Y155171D01*
X1643868Y163105D01*
X1643868D01*
X1737775Y0D01*
X1643868Y-163106D01*
D02*
G37*
G36*
X1440820Y514207D02*
X1422047Y502916D01*
X1381401Y486560D01*
X1338679Y476841D01*
X1294957Y474005D01*
X1251338Y478123D01*
X1208919Y489091D01*
X1168771Y506632D01*
X1131903Y530305D01*
X1099246Y559514D01*
X1071622Y593522D01*
X1049728Y631472D01*
X1034114Y672409D01*
X1025173Y715300D01*
X1023133Y759066D01*
X1028043Y802604D01*
X1039780Y844816D01*
X1058049Y884639D01*
X1082389Y921069D01*
X1112186Y953190D01*
X1146691Y980191D01*
X1165862Y990791D01*
X1165862D01*
X1440820Y514207D01*
D02*
G37*
D10*
X711198Y-1005842D02*
D03*
Y-1229362D02*
D03*
X1015995Y60955D02*
D03*
Y-162565D02*
D03*
X-711204Y-853443D02*
D03*
Y-1076963D02*
D03*
X1168398Y-132082D02*
D03*
X-1422402D02*
D03*
Y-355602D02*
D03*
X1168398D02*
D03*
D11*
X863598Y507998D02*
D03*
Y1269998D02*
D03*
Y-381002D02*
D03*
X-886401Y1269998D02*
D03*
Y1142998D02*
D03*
Y1015998D02*
D03*
Y888998D02*
D03*
Y761998D02*
D03*
Y634998D02*
D03*
Y507998D02*
D03*
Y380998D02*
D03*
Y253998D02*
D03*
Y126998D02*
D03*
Y-2D02*
D03*
Y-127002D02*
D03*
Y-254002D02*
D03*
Y-381002D02*
D03*
X863598Y-254002D02*
D03*
Y-127002D02*
D03*
Y-2D02*
D03*
Y126998D02*
D03*
Y253998D02*
D03*
Y380998D02*
D03*
Y634998D02*
D03*
Y761998D02*
D03*
Y888998D02*
D03*
Y1015998D02*
D03*
Y1142998D02*
D03*
D12*
X432997Y914398D02*
D03*
X152398Y-863602D02*
D03*
X2396D02*
D03*
X200800Y-660402D02*
D03*
X50798D02*
D03*
X582999Y914398D02*
D03*
D13*
X-21399Y638001D02*
D03*
X-161398Y498001D02*
D03*
Y638001D02*
D03*
X-21399Y498001D02*
D03*
Y358001D02*
D03*
X-161398D02*
D03*
X-301398Y638001D02*
D03*
Y358001D02*
D03*
Y498001D02*
D03*
D14*
X660400Y-660400D02*
D03*
X883920D02*
D03*
D15*
X312195Y-812802D02*
D03*
X457198D02*
D03*
D16*
X-203202D02*
D03*
Y-686797D02*
D03*
D17*
X344402Y-1066802D02*
D03*
X-355602D02*
D03*
X-105600D02*
D03*
X94400D02*
D03*
D18*
X-558802Y-924805D02*
D03*
Y-1066802D02*
D03*
D19*
X-660402Y-711202D02*
D03*
X-802398D02*
D03*
D20*
X-1473202Y253998D02*
D03*
X-1333197D02*
D03*
D21*
X-709901Y-506000D02*
D03*
X-582901D02*
D03*
X-455901D02*
D03*
X-328901D02*
D03*
X-201901D02*
D03*
X-74901D02*
D03*
X52099D02*
D03*
X179099D02*
D03*
X306099D02*
D03*
X433099D02*
D03*
X560099D02*
D03*
X687099D02*
D03*
D22*
X-965202Y-965202D02*
D03*
X-815200D02*
D03*
D23*
X1651989Y-2D02*
D03*
X-1651992D02*
D03*
X-1239014Y-715012D02*
D03*
X1239010Y715008D02*
D03*
D24*
X826006Y-1431012D02*
D03*
X-1239014Y714008D02*
D03*
X1239010Y-716012D02*
D03*
D25*
X-481606Y-711202D02*
D03*
X-355602D02*
D03*
D26*
X-826010Y-1431012D02*
D03*
D27*
X-914402Y-508002D02*
D03*
Y-658004D02*
D03*
D28*
X406398Y-660402D02*
D03*
X546403D02*
D03*
D29*
X788597Y1269998D02*
X863598D01*
X749298Y-355602D02*
Y598097D01*
X432997Y914398D02*
X788597Y1269998D01*
X432997Y685788D02*
Y914398D01*
X749298Y598097D01*
X245210Y498001D02*
X432997Y685788D01*
X1015998Y20308D02*
X1104898D01*
X1168398Y-43192D01*
Y-132082D02*
Y-43192D01*
X1015998Y20308D02*
Y20318D01*
X863598Y-381002D02*
X982968D01*
X749298Y-355602D02*
X774698Y-381002D01*
X-161398Y638001D02*
X-21399D01*
X-301398D02*
X-161398D01*
X-301398D02*
Y922968D01*
Y566408D02*
Y638001D01*
Y498001D02*
Y566408D01*
X-21399Y498001D02*
X245210D01*
X-161398D02*
X-21399D01*
Y358001D02*
Y498001D01*
X-161398Y358001D02*
Y498001D01*
X-301398D02*
X-161398D01*
X-301398Y358001D02*
Y498001D01*
X982968Y-381002D02*
X1033778Y-431812D01*
Y-784872D02*
Y-431812D01*
X774698Y-381002D02*
X863598D01*
X975358Y-843292D02*
X1033778Y-784872D01*
X975358Y-975372D02*
Y-843292D01*
X690878Y-975372D02*
Y-660402D01*
Y-975372D02*
X711198D01*
X975358D01*
X711198Y-1005842D02*
Y-1003312D01*
Y-975372D01*
X564401Y-1086608D02*
X647698Y-1003312D01*
X711198D01*
X312195Y-812802D02*
Y-784872D01*
X-76202D02*
X312195D01*
X-76202Y-812802D02*
Y-784872D01*
X-203202Y-858532D02*
Y-812802D01*
X312195Y-876312D02*
Y-812802D01*
Y-876312D02*
X344402Y-908519D01*
X564401Y-1326801D02*
Y-1086608D01*
X344402Y-1066802D02*
Y-908519D01*
X-203202Y-812802D02*
X-76202D01*
X-248922Y-904252D02*
X-203202Y-858532D01*
X-256542Y-919492D02*
X-233682D01*
X-248922Y-904252D02*
X-233682Y-919492D01*
X-256542Y-1206512D02*
Y-919492D01*
X-886401Y1269998D02*
X-648428D01*
X-301398Y922968D01*
X-467362Y-1127772D02*
Y-952745D01*
X-558802Y-924805D02*
X-495302D01*
X-467362Y-952745D01*
X-520702Y-1181112D02*
X-467362Y-1127772D01*
X-575601Y-1181112D02*
X-520702D01*
X-575601Y-1206512D02*
X-256542D01*
X-660402Y-762012D02*
Y-711202D01*
X-711202Y-863602D02*
Y-812812D01*
Y-871232D02*
Y-863602D01*
X-622535Y-871232D02*
X-568962Y-924805D01*
X-558802D01*
X-711202Y-871232D02*
X-622535D01*
X-1422402Y-132082D02*
Y-12D01*
X-711202Y-812812D02*
X-660402Y-762012D01*
X-575601Y-1206512D02*
Y-1181112D01*
Y-1326801D02*
Y-1206512D01*
X1605278Y-2D02*
Y15228D01*
X-1422402Y-391172D02*
X-1331094D01*
X-1422402D02*
Y-355602D01*
Y-401332D02*
Y-391172D01*
X-935443Y-1027990D02*
Y-965202D01*
X-391162Y-711202D02*
Y-647712D01*
X-261622Y-643871D02*
X-203202D01*
X-105600Y-1180030D02*
Y-1066802D01*
X-139702Y-1214132D02*
X-105600Y-1180030D01*
X-462282Y-1214132D02*
X-139702D01*
X-462282D02*
Y-1137932D01*
X-558802D02*
X-462282D01*
X-558802D02*
Y-1066802D01*
X-1422402Y-401332D02*
X-1099822Y-723912D01*
X-373382Y-1351292D02*
X-296272Y-1428401D01*
X29848D01*
X94400Y-1363849D01*
Y-1066802D01*
X1115058Y-766792D02*
Y-535952D01*
X908897Y-972954D02*
X1115058Y-766792D01*
X818300Y-972954D02*
X908897D01*
X754246Y-908900D02*
X818300Y-972954D01*
X546403Y-908900D02*
X754246D01*
X546403D02*
Y-660402D01*
X908175Y888998D02*
X1011792Y992615D01*
X863598Y888998D02*
X908175D01*
X-355602Y-1066802D02*
Y-938816D01*
X-481606Y-812812D02*
X-355602Y-938816D01*
X-481606Y-812812D02*
Y-711202D01*
X1605278Y-2D02*
X1651989D01*
X1272538Y15228D02*
X1605278D01*
X1259838Y27928D02*
X1272538Y15228D01*
X-190502Y129528D02*
X647698D01*
X152398Y-863602D02*
X243838Y-955042D01*
Y-1206512D02*
Y-955042D01*
Y-1206512D02*
X452118D01*
X457198Y-1201432D01*
Y-812802D01*
X-975352Y1142998D02*
X-886401D01*
X-1000762Y1117588D02*
X-975352Y1142998D01*
X-1000762Y805168D02*
Y1117588D01*
X-1473202Y332728D02*
X-1000762Y805168D01*
X-1473202Y253998D02*
Y332728D01*
X-886401Y1015998D02*
X-772162D01*
X-613178Y857015D01*
Y455685D02*
Y857015D01*
Y455685D02*
X-353062Y195568D01*
X-431802Y805168D02*
Y805178D01*
X-769622Y1142998D02*
X-431802Y805178D01*
X-886401Y1142998D02*
X-769622D01*
X-826010Y-1431012D02*
Y-1284744D01*
X-1056642Y-1054112D02*
X-826010Y-1284744D01*
X-1056642Y-1054112D02*
Y-889012D01*
X-993142Y-825512D01*
X-904242D01*
X-965202Y-965202D02*
X-935443D01*
Y-1027990D02*
X-876302Y-1087132D01*
X-711202D01*
Y-1087122D01*
X-709901Y-584212D02*
Y-506000D01*
Y-584212D02*
X-674341Y-619772D01*
X-419102D01*
X-391162Y-647712D01*
Y-711202D02*
X-355602D01*
X-203202Y-686797D02*
Y-643871D01*
X-328901Y-576592D02*
X-261622Y-643871D01*
X-328901Y-576592D02*
Y-506000D01*
X-1473202Y178789D02*
Y253998D01*
X-1651992Y-2D02*
X-1473202Y178789D01*
X-1331094Y-391172D02*
X-1064262Y-658004D01*
X-914402D01*
X-1168402Y-254002D02*
Y-2D01*
X-833264Y-711202D02*
X-802398D01*
X-886462Y-658004D02*
X-833264Y-711202D01*
X-914402Y-658004D02*
X-886462D01*
X-624842Y-1066802D02*
X-558802D01*
X-645162Y-1087122D02*
X-624842Y-1066802D01*
X-711202Y-1087122D02*
X-645162D01*
X-886401Y-431751D02*
Y-381002D01*
X-914402Y-459752D02*
X-886401Y-431751D01*
X-914402Y-508002D02*
Y-459752D01*
D30*
X564401Y-1326801D02*
D03*
X-575601D02*
D03*
D31*
X1371600Y406400D02*
D03*
Y152400D02*
D03*
Y-101600D02*
D03*
X863598Y-863602D02*
D03*
D32*
X1371600Y-355600D02*
D03*
D33*
X863598Y-1117602D02*
D03*
D34*
X-230598Y-1326801D02*
D03*
X219398D02*
D03*
D35*
X-1168402Y-254002D02*
D03*
D36*
Y-2D02*
D03*
Y253998D02*
D03*
D37*
X1117600Y254000D02*
D03*
D38*
X-1422402Y-12D02*
D03*
X-1099822Y-723912D02*
D03*
X-373382Y-1351292D02*
D03*
X1115058Y-535952D02*
D03*
X1259838Y27928D02*
D03*
X647698Y129528D02*
D03*
X-190502D02*
D03*
X-353062Y195568D02*
D03*
X-431802Y805168D02*
D03*
X-904242Y-825512D02*
D03*
%TF.MD5,9975bf2311930706769e284351df7eb5*%
M02*
