%TF.GenerationSoftware,Altium Limited,Altium Designer,25.8.1 (18)*%
G04 Layer_Color=255*
%FSLAX45Y45*%
%MOMM*%
%TF.SameCoordinates,DBAD572D-54B9-4E5B-BD18-095DBB1A99D2*%
%TF.FilePolarity,Positive*%
%TF.FileFunction,Pads,Top*%
%TF.Part,Single*%
G01*
G75*
%TA.AperFunction,SMDPad,CuDef*%
%ADD10R,0.45720X1.16840*%
%TA.AperFunction,ConnectorPad*%
%ADD11R,1.50000X0.90000*%
%TA.AperFunction,SMDPad,CuDef*%
%ADD12R,0.80000X0.80000*%
%TA.AperFunction,BGAPad,CuDef*%
%ADD13R,0.90000X0.90000*%
%TA.AperFunction,SMDPad,CuDef*%
%ADD14R,1.16840X0.45720*%
%ADD15R,0.65000X0.90000*%
%ADD16R,0.98000X0.88000*%
%TA.AperFunction,ConnectorPad*%
%ADD17R,1.20000X2.00000*%
%TA.AperFunction,SMDPad,CuDef*%
%ADD18R,0.94000X0.73000*%
%ADD19R,0.73000X0.94000*%
%ADD20R,0.60000X0.80000*%
%TA.AperFunction,ConnectorPad*%
%ADD21R,0.90000X1.50000*%
%TA.AperFunction,SMDPad,CuDef*%
%ADD22R,1.05000X1.00000*%
G04:AMPARAMS|DCode=23|XSize=1mm|YSize=1mm|CornerRadius=0.5mm|HoleSize=0mm|Usage=FLASHONLY|Rotation=0.000|XOffset=0mm|YOffset=0mm|HoleType=Round|Shape=RoundedRectangle|*
%AMROUNDEDRECTD23*
21,1,1.00000,0.00000,0,0,0.0*
21,1,0.00000,1.00000,0,0,0.0*
1,1,1.00000,0.00000,0.00000*
1,1,1.00000,0.00000,0.00000*
1,1,1.00000,0.00000,0.00000*
1,1,1.00000,0.00000,0.00000*
%
%ADD23ROUNDEDRECTD23*%
G04:AMPARAMS|DCode=24|XSize=1mm|YSize=1mm|CornerRadius=0.5mm|HoleSize=0mm|Usage=FLASHONLY|Rotation=300.000|XOffset=0mm|YOffset=0mm|HoleType=Round|Shape=RoundedRectangle|*
%AMROUNDEDRECTD24*
21,1,1.00000,0.00000,0,0,300.0*
21,1,0.00000,1.00000,0,0,300.0*
1,1,1.00000,0.00000,0.00000*
1,1,1.00000,0.00000,0.00000*
1,1,1.00000,0.00000,0.00000*
1,1,1.00000,0.00000,0.00000*
%
%ADD24ROUNDEDRECTD24*%
%ADD25R,0.88000X0.98000*%
G04:AMPARAMS|DCode=26|XSize=1mm|YSize=1mm|CornerRadius=0.5mm|HoleSize=0mm|Usage=FLASHONLY|Rotation=240.000|XOffset=0mm|YOffset=0mm|HoleType=Round|Shape=RoundedRectangle|*
%AMROUNDEDRECTD26*
21,1,1.00000,0.00000,0,0,240.0*
21,1,0.00000,1.00000,0,0,240.0*
1,1,1.00000,0.00000,0.00000*
1,1,1.00000,0.00000,0.00000*
1,1,1.00000,0.00000,0.00000*
1,1,1.00000,0.00000,0.00000*
%
%ADD26ROUNDEDRECTD26*%
%ADD27R,1.00000X1.05000*%
%ADD28R,0.78000X0.98000*%
%TA.AperFunction,ComponentPad*%
%ADD30O,1.50000X3.00000*%
%ADD31C,1.42500*%
%ADD32R,1.42500X1.42500*%
%ADD33R,1.42500X1.42500*%
%ADD34C,0.50000*%
%ADD35R,1.72500X1.72500*%
%ADD36C,1.72500*%
%ADD37R,1.72500X1.72500*%
D10*
X711198Y-1005842D02*
D03*
Y-1229362D02*
D03*
X1015995Y60955D02*
D03*
Y-162565D02*
D03*
X-711204Y-853443D02*
D03*
Y-1076963D02*
D03*
X1168398Y-132082D02*
D03*
X-1422402D02*
D03*
Y-355602D02*
D03*
X1168398D02*
D03*
D11*
X863598Y507998D02*
D03*
Y1269998D02*
D03*
Y-381002D02*
D03*
X-886401Y1269998D02*
D03*
Y1142998D02*
D03*
Y1015998D02*
D03*
Y888998D02*
D03*
Y761998D02*
D03*
Y634998D02*
D03*
Y507998D02*
D03*
Y380998D02*
D03*
Y253998D02*
D03*
Y126998D02*
D03*
Y-2D02*
D03*
Y-127002D02*
D03*
Y-254002D02*
D03*
Y-381002D02*
D03*
X863598Y-254002D02*
D03*
Y-127002D02*
D03*
Y-2D02*
D03*
Y126998D02*
D03*
Y253998D02*
D03*
Y380998D02*
D03*
Y634998D02*
D03*
Y761998D02*
D03*
Y888998D02*
D03*
Y1015998D02*
D03*
Y1142998D02*
D03*
D12*
X432997Y914398D02*
D03*
X152398Y-863602D02*
D03*
X2396D02*
D03*
X200800Y-660402D02*
D03*
X50798D02*
D03*
X582999Y914398D02*
D03*
D13*
X-21399Y638001D02*
D03*
X-161398Y498001D02*
D03*
Y638001D02*
D03*
X-21399Y498001D02*
D03*
Y358001D02*
D03*
X-161398D02*
D03*
X-301398Y638001D02*
D03*
Y358001D02*
D03*
Y498001D02*
D03*
D14*
X660400Y-660400D02*
D03*
X883920D02*
D03*
D15*
X312195Y-812802D02*
D03*
X457198D02*
D03*
D16*
X-203202D02*
D03*
Y-686797D02*
D03*
D17*
X344402Y-1066802D02*
D03*
X-355602D02*
D03*
X-105600D02*
D03*
X94400D02*
D03*
D18*
X-558802Y-924805D02*
D03*
Y-1066802D02*
D03*
D19*
X-660402Y-711202D02*
D03*
X-802398D02*
D03*
D20*
X-1473202Y253998D02*
D03*
X-1333197D02*
D03*
D21*
X-709901Y-506000D02*
D03*
X-582901D02*
D03*
X-455901D02*
D03*
X-328901D02*
D03*
X-201901D02*
D03*
X-74901D02*
D03*
X52099D02*
D03*
X179099D02*
D03*
X306099D02*
D03*
X433099D02*
D03*
X560099D02*
D03*
X687099D02*
D03*
D22*
X-965202Y-965202D02*
D03*
X-815200D02*
D03*
D23*
X1651989Y-2D02*
D03*
X-1651992D02*
D03*
X-1239014Y-715012D02*
D03*
X1239010Y715008D02*
D03*
D24*
X826006Y-1431012D02*
D03*
X-1239014Y714008D02*
D03*
X1239010Y-716012D02*
D03*
D25*
X-481606Y-711202D02*
D03*
X-355602D02*
D03*
D26*
X-826010Y-1431012D02*
D03*
D27*
X-914402Y-508002D02*
D03*
Y-658004D02*
D03*
D28*
X406398Y-660402D02*
D03*
X546403D02*
D03*
D30*
X564401Y-1326801D02*
D03*
X-575601D02*
D03*
D31*
X1371600Y406400D02*
D03*
Y152400D02*
D03*
Y-101600D02*
D03*
X863598Y-863602D02*
D03*
D32*
X1371600Y-355600D02*
D03*
D33*
X863598Y-1117602D02*
D03*
D34*
X-230598Y-1326801D02*
D03*
X219398D02*
D03*
D35*
X-1168402Y-254002D02*
D03*
D36*
Y-2D02*
D03*
Y253998D02*
D03*
D37*
X1117600Y254000D02*
D03*
%TF.MD5,9e39d420e0b577eeff51c0bbb265e3e8*%
M02*
