%TF.GenerationSoftware,Altium Limited,Altium Designer,25.8.1 (18)*%
G04 Layer_Color=0*
%FSLAX45Y45*%
%MOMM*%
%TF.SameCoordinates,DBAD572D-54B9-4E5B-BD18-095DBB1A99D2*%
%TF.FilePolarity,Positive*%
%TF.FileFunction,Plated,1,2,PTH,Drill*%
%TF.Part,Single*%
G01*
G75*
%TA.AperFunction,ComponentDrill*%
%ADD93O,1.00000X2.50000*%
%ADD94C,0.95000*%
%ADD95C,0.95000*%
%ADD96C,1.15000*%
%ADD97C,1.15000*%
%TA.AperFunction,ViaDrill,NotFilled*%
%ADD98C,0.71120*%
D93*
X564401Y-1326801D02*
D03*
X-575601D02*
D03*
D94*
X1371600Y406400D02*
D03*
Y152400D02*
D03*
Y-101600D02*
D03*
Y-355600D02*
D03*
D95*
X863598Y-863602D02*
D03*
Y-1117602D02*
D03*
D96*
X-1168402Y-254002D02*
D03*
Y-2D02*
D03*
Y253998D02*
D03*
D97*
X1117600Y254000D02*
D03*
D98*
X-1422402Y-12D02*
D03*
X-1099822Y-723912D02*
D03*
X-373382Y-1351292D02*
D03*
X1115058Y-535952D02*
D03*
X1259838Y27928D02*
D03*
X647698Y129528D02*
D03*
X-190502D02*
D03*
X-353062Y195568D02*
D03*
X-431802Y805168D02*
D03*
X-904242Y-825512D02*
D03*
%TF.MD5,3848c4809cde2bd74b5b9e40254d6299*%
M02*
