%TF.GenerationSoftware,Altium Limited,Altium Designer,25.8.1 (18)*%
G04 Layer_Color=65535*
%FSLAX45Y45*%
%MOMM*%
%TF.SameCoordinates,DBAD572D-54B9-4E5B-BD18-095DBB1A99D2*%
%TF.FilePolarity,Positive*%
%TF.FileFunction,Legend,Top*%
%TF.Part,Single*%
G01*
G75*
%TA.AperFunction,NonConductor*%
%ADD53C,0.10000*%
%ADD54C,0.25000*%
%ADD55C,0.20000*%
%ADD56C,0.15240*%
%ADD57C,0.07620*%
G36*
X117348Y1250442D02*
Y1248918D01*
Y1247394D01*
Y1245870D01*
Y1244346D01*
Y1242822D01*
Y1241298D01*
Y1239774D01*
Y1238250D01*
Y1236726D01*
Y1235202D01*
Y1233678D01*
Y1232154D01*
Y1230630D01*
Y1229106D01*
Y1227582D01*
Y1226058D01*
Y1224534D01*
Y1223010D01*
Y1221486D01*
Y1219962D01*
Y1218438D01*
Y1216914D01*
Y1215390D01*
Y1213866D01*
Y1212342D01*
Y1210818D01*
Y1209294D01*
Y1207770D01*
Y1206246D01*
Y1204722D01*
Y1203198D01*
Y1201674D01*
Y1200150D01*
Y1198626D01*
Y1197102D01*
Y1195578D01*
Y1194054D01*
Y1192530D01*
Y1191006D01*
Y1189482D01*
Y1187958D01*
Y1186434D01*
Y1184910D01*
Y1183386D01*
Y1181862D01*
Y1180338D01*
Y1178814D01*
Y1177290D01*
Y1175766D01*
Y1174242D01*
Y1172718D01*
Y1171194D01*
Y1169670D01*
Y1168146D01*
Y1166622D01*
Y1165098D01*
Y1163574D01*
Y1162050D01*
Y1160526D01*
Y1159002D01*
Y1157478D01*
Y1155954D01*
Y1154430D01*
Y1152906D01*
Y1151382D01*
Y1149858D01*
Y1148334D01*
Y1146810D01*
Y1145286D01*
Y1143762D01*
Y1142238D01*
Y1140714D01*
Y1139190D01*
Y1137666D01*
Y1136142D01*
Y1134618D01*
Y1133094D01*
Y1131570D01*
Y1130046D01*
Y1128522D01*
Y1126998D01*
Y1125474D01*
Y1123950D01*
Y1122426D01*
Y1120902D01*
Y1119378D01*
Y1117854D01*
Y1116330D01*
Y1114806D01*
Y1113282D01*
Y1111758D01*
Y1110234D01*
Y1108710D01*
Y1107186D01*
Y1105662D01*
Y1104138D01*
Y1102614D01*
Y1101090D01*
Y1099566D01*
Y1098042D01*
Y1096518D01*
Y1094994D01*
Y1093470D01*
Y1091946D01*
Y1090422D01*
Y1088898D01*
Y1087374D01*
Y1085850D01*
X47244D01*
Y1087374D01*
X45720D01*
Y1088898D01*
Y1090422D01*
Y1091946D01*
Y1093470D01*
Y1094994D01*
Y1096518D01*
Y1098042D01*
Y1099566D01*
Y1101090D01*
Y1102614D01*
Y1104138D01*
Y1105662D01*
Y1107186D01*
Y1108710D01*
Y1110234D01*
Y1111758D01*
Y1113282D01*
Y1114806D01*
Y1116330D01*
Y1117854D01*
Y1119378D01*
Y1120902D01*
Y1122426D01*
Y1123950D01*
Y1125474D01*
Y1126998D01*
Y1128522D01*
Y1130046D01*
Y1131570D01*
Y1133094D01*
Y1134618D01*
Y1136142D01*
Y1137666D01*
Y1139190D01*
Y1140714D01*
Y1142238D01*
Y1143762D01*
Y1145286D01*
Y1146810D01*
Y1148334D01*
Y1149858D01*
Y1151382D01*
Y1152906D01*
Y1154430D01*
Y1155954D01*
Y1157478D01*
Y1159002D01*
Y1160526D01*
Y1162050D01*
Y1163574D01*
Y1165098D01*
Y1166622D01*
Y1168146D01*
Y1169670D01*
Y1171194D01*
Y1172718D01*
Y1174242D01*
X44196D01*
Y1175766D01*
Y1177290D01*
X42672D01*
Y1178814D01*
X41148D01*
Y1180338D01*
X39624D01*
Y1181862D01*
X36576D01*
Y1183386D01*
X30480D01*
Y1184910D01*
X28956D01*
Y1183386D01*
X22860D01*
Y1181862D01*
X19812D01*
Y1180338D01*
X18288D01*
Y1178814D01*
X16764D01*
Y1177290D01*
X15240D01*
Y1175766D01*
Y1174242D01*
X13716D01*
Y1172718D01*
Y1171194D01*
Y1169670D01*
Y1168146D01*
Y1166622D01*
Y1165098D01*
Y1163574D01*
Y1162050D01*
Y1160526D01*
Y1159002D01*
Y1157478D01*
Y1155954D01*
Y1154430D01*
Y1152906D01*
Y1151382D01*
Y1149858D01*
Y1148334D01*
Y1146810D01*
Y1145286D01*
Y1143762D01*
Y1142238D01*
Y1140714D01*
Y1139190D01*
Y1137666D01*
Y1136142D01*
X12192D01*
Y1134618D01*
Y1133094D01*
Y1131570D01*
Y1130046D01*
Y1128522D01*
Y1126998D01*
Y1125474D01*
Y1123950D01*
Y1122426D01*
Y1120902D01*
Y1119378D01*
Y1117854D01*
Y1116330D01*
Y1114806D01*
Y1113282D01*
Y1111758D01*
Y1110234D01*
Y1108710D01*
Y1107186D01*
Y1105662D01*
Y1104138D01*
Y1102614D01*
Y1101090D01*
Y1099566D01*
Y1098042D01*
Y1096518D01*
Y1094994D01*
Y1093470D01*
Y1091946D01*
Y1090422D01*
Y1088898D01*
Y1087374D01*
Y1085850D01*
Y1084326D01*
Y1082802D01*
Y1081278D01*
Y1079754D01*
Y1078230D01*
Y1076706D01*
Y1075182D01*
Y1073658D01*
Y1072134D01*
Y1070610D01*
Y1069086D01*
Y1067562D01*
Y1066038D01*
Y1064514D01*
Y1062990D01*
Y1061466D01*
Y1059942D01*
Y1058418D01*
Y1056894D01*
Y1055370D01*
Y1053846D01*
Y1052322D01*
Y1050798D01*
Y1049274D01*
Y1047750D01*
Y1046226D01*
Y1044702D01*
Y1043178D01*
Y1041654D01*
X13716D01*
Y1040130D01*
Y1038606D01*
Y1037082D01*
Y1035558D01*
Y1034034D01*
Y1032510D01*
Y1030986D01*
Y1029462D01*
Y1027938D01*
Y1026414D01*
Y1024890D01*
Y1023366D01*
Y1021842D01*
Y1020318D01*
Y1018794D01*
Y1017270D01*
Y1015746D01*
Y1014222D01*
Y1012698D01*
Y1011174D01*
Y1009650D01*
Y1008126D01*
Y1006602D01*
Y1005078D01*
Y1003554D01*
Y1002030D01*
Y1000506D01*
Y998982D01*
Y997458D01*
Y995934D01*
Y994410D01*
Y992886D01*
Y991362D01*
Y989838D01*
Y988314D01*
Y986790D01*
Y985266D01*
Y983742D01*
Y982218D01*
Y980694D01*
Y979170D01*
Y977646D01*
Y976122D01*
Y974598D01*
Y973074D01*
Y971550D01*
Y970026D01*
Y968502D01*
Y966978D01*
Y965454D01*
Y963930D01*
Y962406D01*
Y960882D01*
Y959358D01*
Y957834D01*
Y956310D01*
Y954786D01*
Y953262D01*
Y951738D01*
Y950214D01*
Y948690D01*
Y947166D01*
Y945642D01*
Y944118D01*
Y942594D01*
Y941070D01*
Y939546D01*
Y938022D01*
Y936498D01*
Y934974D01*
Y933450D01*
Y931926D01*
Y930402D01*
Y928878D01*
Y927354D01*
Y925830D01*
Y924306D01*
Y922782D01*
Y921258D01*
Y919734D01*
Y918210D01*
Y916686D01*
Y915162D01*
Y913638D01*
Y912114D01*
Y910590D01*
Y909066D01*
Y907542D01*
Y906018D01*
Y904494D01*
Y902970D01*
Y901446D01*
Y899922D01*
Y898398D01*
Y896874D01*
Y895350D01*
Y893826D01*
Y892302D01*
Y890778D01*
Y889254D01*
Y887730D01*
Y886206D01*
Y884682D01*
X12192D01*
Y883158D01*
X-13716D01*
Y884682D01*
X-19812D01*
Y886206D01*
X-22860D01*
Y887730D01*
X-24384D01*
Y889254D01*
X-25908D01*
Y890778D01*
X-28956D01*
Y892302D01*
Y893826D01*
X-30480D01*
Y895350D01*
X-32004D01*
Y896874D01*
Y898398D01*
X-33528D01*
Y899922D01*
X-35052D01*
Y901446D01*
Y902970D01*
X-36576D01*
Y904494D01*
Y906018D01*
X-38100D01*
Y907542D01*
Y909066D01*
X-39624D01*
Y910590D01*
X-41148D01*
Y912114D01*
Y913638D01*
X-42672D01*
Y915162D01*
Y916686D01*
X-44196D01*
Y918210D01*
X-45720D01*
Y919734D01*
Y921258D01*
X-47244D01*
Y922782D01*
Y924306D01*
X-48768D01*
Y925830D01*
Y927354D01*
X-50292D01*
Y928878D01*
X-51816D01*
Y930402D01*
Y931926D01*
X-53340D01*
Y933450D01*
Y934974D01*
X-54864D01*
Y936498D01*
Y938022D01*
X-56388D01*
Y939546D01*
X-57912D01*
Y941070D01*
Y942594D01*
X-59436D01*
Y944118D01*
Y945642D01*
X-60960D01*
Y947166D01*
Y948690D01*
X-62484D01*
Y950214D01*
X-64008D01*
Y951738D01*
Y953262D01*
X-65532D01*
Y954786D01*
Y956310D01*
X-67056D01*
Y957834D01*
X-68580D01*
Y959358D01*
Y960882D01*
X-70104D01*
Y962406D01*
Y963930D01*
X-71628D01*
Y965454D01*
Y966978D01*
X-73152D01*
Y968502D01*
X-74676D01*
Y970026D01*
Y971550D01*
X-76200D01*
Y973074D01*
Y974598D01*
X-77724D01*
Y976122D01*
Y977646D01*
X-79248D01*
Y979170D01*
X-80772D01*
Y980694D01*
Y982218D01*
X-82296D01*
Y983742D01*
Y985266D01*
X-83820D01*
Y986790D01*
Y988314D01*
X-85344D01*
Y989838D01*
X-86868D01*
Y991362D01*
Y992886D01*
X-88392D01*
Y994410D01*
Y995934D01*
X-89916D01*
Y997458D01*
Y998982D01*
X-91440D01*
Y1000506D01*
X-92964D01*
Y1002030D01*
Y1003554D01*
X-94488D01*
Y1005078D01*
Y1006602D01*
X-96012D01*
Y1008126D01*
Y1009650D01*
X-97536D01*
Y1011174D01*
X-99060D01*
Y1012698D01*
Y1014222D01*
X-100584D01*
Y1015746D01*
Y1017270D01*
X-102108D01*
Y1018794D01*
X-103632D01*
Y1020318D01*
Y1021842D01*
X-105156D01*
Y1023366D01*
Y1024890D01*
X-106680D01*
Y1026414D01*
Y1027938D01*
X-108204D01*
Y1029462D01*
X-109728D01*
Y1030986D01*
Y1032510D01*
X-111252D01*
Y1034034D01*
Y1035558D01*
X-112776D01*
Y1037082D01*
Y1038606D01*
X-114300D01*
Y1040130D01*
X-115824D01*
Y1041654D01*
Y1043178D01*
X-117348D01*
Y1044702D01*
Y1046226D01*
X-118872D01*
Y1047750D01*
Y1049274D01*
X-120396D01*
Y1050798D01*
X-121920D01*
Y1052322D01*
Y1053846D01*
X-123444D01*
Y1055370D01*
Y1056894D01*
X-124968D01*
Y1058418D01*
Y1059942D01*
X-126492D01*
Y1061466D01*
Y1062990D01*
Y1064514D01*
Y1066038D01*
Y1067562D01*
Y1069086D01*
Y1070610D01*
Y1072134D01*
Y1073658D01*
Y1075182D01*
X-124968D01*
Y1076706D01*
Y1078230D01*
Y1079754D01*
X-123444D01*
Y1081278D01*
Y1082802D01*
X-121920D01*
Y1084326D01*
X-120396D01*
Y1085850D01*
Y1087374D01*
X-118872D01*
Y1088898D01*
Y1090422D01*
X-117348D01*
Y1091946D01*
Y1093470D01*
X-115824D01*
Y1094994D01*
X-114300D01*
Y1096518D01*
Y1098042D01*
X-112776D01*
Y1099566D01*
Y1101090D01*
X-111252D01*
Y1102614D01*
X-109728D01*
Y1104138D01*
Y1105662D01*
X-108204D01*
Y1107186D01*
Y1108710D01*
X-106680D01*
Y1110234D01*
Y1111758D01*
X-105156D01*
Y1113282D01*
X-103632D01*
Y1114806D01*
Y1116330D01*
X-102108D01*
Y1117854D01*
Y1119378D01*
X-100584D01*
Y1120902D01*
Y1122426D01*
X-99060D01*
Y1123950D01*
X-97536D01*
Y1125474D01*
Y1126998D01*
X-96012D01*
Y1128522D01*
X-94488D01*
Y1130046D01*
Y1131570D01*
X-92964D01*
Y1133094D01*
Y1134618D01*
X-91440D01*
Y1136142D01*
Y1137666D01*
X-89916D01*
Y1139190D01*
X-88392D01*
Y1140714D01*
Y1142238D01*
X-86868D01*
Y1143762D01*
Y1145286D01*
X-85344D01*
Y1146810D01*
Y1148334D01*
X-83820D01*
Y1149858D01*
X-82296D01*
Y1151382D01*
Y1152906D01*
X-80772D01*
Y1154430D01*
Y1155954D01*
X-79248D01*
Y1157478D01*
Y1159002D01*
X-77724D01*
Y1160526D01*
X-76200D01*
Y1162050D01*
Y1163574D01*
X-74676D01*
Y1165098D01*
Y1166622D01*
X-73152D01*
Y1168146D01*
X-71628D01*
Y1169670D01*
Y1171194D01*
X-70104D01*
Y1172718D01*
Y1174242D01*
X-68580D01*
Y1175766D01*
Y1177290D01*
X-67056D01*
Y1178814D01*
X-65532D01*
Y1180338D01*
Y1181862D01*
X-64008D01*
Y1183386D01*
Y1184910D01*
X-62484D01*
Y1186434D01*
Y1187958D01*
X-60960D01*
Y1189482D01*
X-59436D01*
Y1191006D01*
Y1192530D01*
X-57912D01*
Y1194054D01*
Y1195578D01*
X-56388D01*
Y1197102D01*
Y1198626D01*
X-54864D01*
Y1200150D01*
X-53340D01*
Y1201674D01*
Y1203198D01*
X-51816D01*
Y1204722D01*
Y1206246D01*
X-50292D01*
Y1207770D01*
X-48768D01*
Y1209294D01*
Y1210818D01*
X-47244D01*
Y1212342D01*
Y1213866D01*
X-45720D01*
Y1215390D01*
Y1216914D01*
X-44196D01*
Y1218438D01*
X-42672D01*
Y1219962D01*
Y1221486D01*
X-41148D01*
Y1223010D01*
Y1224534D01*
X-39624D01*
Y1226058D01*
Y1227582D01*
X-38100D01*
Y1229106D01*
X-36576D01*
Y1230630D01*
Y1232154D01*
X-35052D01*
Y1233678D01*
Y1235202D01*
X-33528D01*
Y1236726D01*
Y1238250D01*
X-32004D01*
Y1239774D01*
X-30480D01*
Y1241298D01*
Y1242822D01*
X-28956D01*
Y1244346D01*
X-27432D01*
Y1245870D01*
X-25908D01*
Y1247394D01*
X-22860D01*
Y1248918D01*
X-19812D01*
Y1250442D01*
X-16764D01*
Y1251966D01*
X117348D01*
Y1250442D01*
D02*
G37*
G36*
X179832D02*
X184404D01*
Y1248918D01*
X187452D01*
Y1247394D01*
X188976D01*
Y1245870D01*
X190500D01*
Y1244346D01*
X192024D01*
Y1242822D01*
X193548D01*
Y1241298D01*
X195072D01*
Y1239774D01*
X196596D01*
Y1238250D01*
Y1236726D01*
X198120D01*
Y1235202D01*
Y1233678D01*
X199644D01*
Y1232154D01*
Y1230630D01*
X201168D01*
Y1229106D01*
X202692D01*
Y1227582D01*
Y1226058D01*
X204216D01*
Y1224534D01*
Y1223010D01*
X205740D01*
Y1221486D01*
X207264D01*
Y1219962D01*
Y1218438D01*
X208788D01*
Y1216914D01*
Y1215390D01*
X210312D01*
Y1213866D01*
Y1212342D01*
X211836D01*
Y1210818D01*
X213360D01*
Y1209294D01*
Y1207770D01*
X214884D01*
Y1206246D01*
Y1204722D01*
X216408D01*
Y1203198D01*
Y1201674D01*
X217932D01*
Y1200150D01*
X219456D01*
Y1198626D01*
Y1197102D01*
X220980D01*
Y1195578D01*
Y1194054D01*
X222504D01*
Y1192530D01*
Y1191006D01*
X224028D01*
Y1189482D01*
X225552D01*
Y1187958D01*
Y1186434D01*
X227076D01*
Y1184910D01*
Y1183386D01*
X228600D01*
Y1181862D01*
X230124D01*
Y1180338D01*
Y1178814D01*
X231648D01*
Y1177290D01*
Y1175766D01*
X233172D01*
Y1174242D01*
Y1172718D01*
X234696D01*
Y1171194D01*
X236220D01*
Y1169670D01*
Y1168146D01*
X237744D01*
Y1166622D01*
Y1165098D01*
X239268D01*
Y1163574D01*
Y1162050D01*
X240792D01*
Y1160526D01*
X242316D01*
Y1159002D01*
Y1157478D01*
X243840D01*
Y1155954D01*
Y1154430D01*
X245364D01*
Y1152906D01*
Y1151382D01*
X246888D01*
Y1149858D01*
X248412D01*
Y1148334D01*
Y1146810D01*
X249936D01*
Y1145286D01*
Y1143762D01*
X251460D01*
Y1142238D01*
X252984D01*
Y1140714D01*
Y1139190D01*
X254508D01*
Y1137666D01*
Y1136142D01*
X256032D01*
Y1134618D01*
Y1133094D01*
X257556D01*
Y1131570D01*
X259080D01*
Y1130046D01*
Y1128522D01*
X260604D01*
Y1126998D01*
Y1125474D01*
X262128D01*
Y1123950D01*
Y1122426D01*
X263652D01*
Y1120902D01*
X265176D01*
Y1119378D01*
Y1117854D01*
X266700D01*
Y1116330D01*
Y1114806D01*
X268224D01*
Y1113282D01*
Y1111758D01*
X269748D01*
Y1110234D01*
X271272D01*
Y1108710D01*
Y1107186D01*
X272796D01*
Y1105662D01*
Y1104138D01*
X274320D01*
Y1102614D01*
X275844D01*
Y1101090D01*
Y1099566D01*
X277368D01*
Y1098042D01*
Y1096518D01*
X278892D01*
Y1094994D01*
Y1093470D01*
X280416D01*
Y1091946D01*
X281940D01*
Y1090422D01*
Y1088898D01*
X283464D01*
Y1087374D01*
Y1085850D01*
X284988D01*
Y1084326D01*
Y1082802D01*
X286512D01*
Y1081278D01*
X288036D01*
Y1079754D01*
Y1078230D01*
X289560D01*
Y1076706D01*
Y1075182D01*
Y1073658D01*
Y1072134D01*
X291084D01*
Y1070610D01*
Y1069086D01*
Y1067562D01*
Y1066038D01*
Y1064514D01*
X289560D01*
Y1062990D01*
Y1061466D01*
Y1059942D01*
Y1058418D01*
X288036D01*
Y1056894D01*
Y1055370D01*
X286512D01*
Y1053846D01*
Y1052322D01*
X284988D01*
Y1050798D01*
Y1049274D01*
X283464D01*
Y1047750D01*
X281940D01*
Y1046226D01*
Y1044702D01*
X280416D01*
Y1043178D01*
Y1041654D01*
X278892D01*
Y1040130D01*
X277368D01*
Y1038606D01*
Y1037082D01*
X275844D01*
Y1035558D01*
Y1034034D01*
X274320D01*
Y1032510D01*
Y1030986D01*
X272796D01*
Y1029462D01*
X271272D01*
Y1027938D01*
Y1026414D01*
X269748D01*
Y1024890D01*
Y1023366D01*
X268224D01*
Y1021842D01*
Y1020318D01*
X266700D01*
Y1018794D01*
X265176D01*
Y1017270D01*
Y1015746D01*
X263652D01*
Y1014222D01*
Y1012698D01*
X262128D01*
Y1011174D01*
X260604D01*
Y1009650D01*
Y1008126D01*
X259080D01*
Y1006602D01*
Y1005078D01*
X257556D01*
Y1003554D01*
Y1002030D01*
X256032D01*
Y1000506D01*
X254508D01*
Y998982D01*
Y997458D01*
X252984D01*
Y995934D01*
Y994410D01*
X251460D01*
Y992886D01*
Y991362D01*
X249936D01*
Y989838D01*
X248412D01*
Y988314D01*
Y986790D01*
X246888D01*
Y985266D01*
Y983742D01*
X245364D01*
Y982218D01*
X243840D01*
Y980694D01*
Y979170D01*
X242316D01*
Y977646D01*
Y976122D01*
X240792D01*
Y974598D01*
Y973074D01*
X239268D01*
Y971550D01*
X237744D01*
Y970026D01*
Y968502D01*
X236220D01*
Y966978D01*
Y965454D01*
X234696D01*
Y963930D01*
Y962406D01*
X233172D01*
Y960882D01*
Y959358D01*
X231648D01*
Y957834D01*
Y956310D01*
X230124D01*
Y954786D01*
X228600D01*
Y953262D01*
Y951738D01*
X227076D01*
Y950214D01*
Y948690D01*
X225552D01*
Y947166D01*
X224028D01*
Y945642D01*
Y944118D01*
X222504D01*
Y942594D01*
Y941070D01*
X220980D01*
Y939546D01*
Y938022D01*
X219456D01*
Y936498D01*
X217932D01*
Y934974D01*
Y933450D01*
X216408D01*
Y931926D01*
Y930402D01*
X214884D01*
Y928878D01*
Y927354D01*
X213360D01*
Y925830D01*
X211836D01*
Y924306D01*
Y922782D01*
X210312D01*
Y921258D01*
Y919734D01*
X208788D01*
Y918210D01*
Y916686D01*
X207264D01*
Y915162D01*
X205740D01*
Y913638D01*
Y912114D01*
X204216D01*
Y910590D01*
Y909066D01*
X202692D01*
Y907542D01*
Y906018D01*
X201168D01*
Y904494D01*
X199644D01*
Y902970D01*
Y901446D01*
X198120D01*
Y899922D01*
Y898398D01*
X196596D01*
Y896874D01*
X195072D01*
Y895350D01*
Y893826D01*
X193548D01*
Y892302D01*
X192024D01*
Y890778D01*
X190500D01*
Y889254D01*
X188976D01*
Y887730D01*
X185928D01*
Y886206D01*
X182880D01*
Y884682D01*
X178308D01*
Y883158D01*
X47244D01*
Y884682D01*
X45720D01*
Y886206D01*
Y887730D01*
Y889254D01*
Y890778D01*
Y892302D01*
Y893826D01*
Y895350D01*
Y896874D01*
Y898398D01*
Y899922D01*
Y901446D01*
Y902970D01*
Y904494D01*
Y906018D01*
Y907542D01*
Y909066D01*
Y910590D01*
Y912114D01*
Y913638D01*
Y915162D01*
Y916686D01*
Y918210D01*
Y919734D01*
Y921258D01*
Y922782D01*
Y924306D01*
Y925830D01*
Y927354D01*
Y928878D01*
Y930402D01*
Y931926D01*
Y933450D01*
Y934974D01*
Y936498D01*
Y938022D01*
Y939546D01*
Y941070D01*
Y942594D01*
Y944118D01*
Y945642D01*
Y947166D01*
Y948690D01*
Y950214D01*
Y951738D01*
Y953262D01*
Y954786D01*
Y956310D01*
Y957834D01*
Y959358D01*
Y960882D01*
Y962406D01*
Y963930D01*
Y965454D01*
Y966978D01*
Y968502D01*
Y970026D01*
Y971550D01*
Y973074D01*
Y974598D01*
Y976122D01*
Y977646D01*
Y979170D01*
Y980694D01*
Y982218D01*
Y983742D01*
Y985266D01*
Y986790D01*
Y988314D01*
Y989838D01*
Y991362D01*
Y992886D01*
Y994410D01*
Y995934D01*
Y997458D01*
Y998982D01*
Y1000506D01*
Y1002030D01*
Y1003554D01*
Y1005078D01*
Y1006602D01*
Y1008126D01*
Y1009650D01*
Y1011174D01*
Y1012698D01*
Y1014222D01*
Y1015746D01*
Y1017270D01*
Y1018794D01*
Y1020318D01*
Y1021842D01*
Y1023366D01*
Y1024890D01*
Y1026414D01*
Y1027938D01*
Y1029462D01*
Y1030986D01*
Y1032510D01*
Y1034034D01*
Y1035558D01*
Y1037082D01*
Y1038606D01*
Y1040130D01*
Y1041654D01*
Y1043178D01*
Y1044702D01*
Y1046226D01*
Y1047750D01*
Y1049274D01*
X47244D01*
Y1050798D01*
X117348D01*
Y1049274D01*
Y1047750D01*
Y1046226D01*
Y1044702D01*
Y1043178D01*
Y1041654D01*
Y1040130D01*
Y1038606D01*
Y1037082D01*
Y1035558D01*
Y1034034D01*
Y1032510D01*
Y1030986D01*
Y1029462D01*
Y1027938D01*
Y1026414D01*
Y1024890D01*
Y1023366D01*
Y1021842D01*
Y1020318D01*
Y1018794D01*
Y1017270D01*
Y1015746D01*
Y1014222D01*
Y1012698D01*
Y1011174D01*
Y1009650D01*
Y1008126D01*
Y1006602D01*
Y1005078D01*
Y1003554D01*
Y1002030D01*
Y1000506D01*
Y998982D01*
Y997458D01*
Y995934D01*
Y994410D01*
Y992886D01*
Y991362D01*
Y989838D01*
X118872D01*
Y988314D01*
Y986790D01*
Y985266D01*
Y983742D01*
Y982218D01*
Y980694D01*
Y979170D01*
Y977646D01*
Y976122D01*
Y974598D01*
Y973074D01*
Y971550D01*
Y970026D01*
Y968502D01*
Y966978D01*
Y965454D01*
Y963930D01*
Y962406D01*
Y960882D01*
X120396D01*
Y959358D01*
X121920D01*
Y957834D01*
Y956310D01*
X124968D01*
Y954786D01*
X126492D01*
Y953262D01*
X131064D01*
Y951738D01*
X138684D01*
Y953262D01*
X141732D01*
Y954786D01*
X144780D01*
Y956310D01*
X146304D01*
Y957834D01*
X147828D01*
Y959358D01*
X149352D01*
Y960882D01*
Y962406D01*
Y963930D01*
X150876D01*
Y965454D01*
Y966978D01*
Y968502D01*
Y970026D01*
Y971550D01*
Y973074D01*
Y974598D01*
Y976122D01*
Y977646D01*
Y979170D01*
Y980694D01*
Y982218D01*
Y983742D01*
Y985266D01*
Y986790D01*
Y988314D01*
Y989838D01*
Y991362D01*
Y992886D01*
Y994410D01*
Y995934D01*
Y997458D01*
Y998982D01*
Y1000506D01*
Y1002030D01*
Y1003554D01*
Y1005078D01*
Y1006602D01*
Y1008126D01*
Y1009650D01*
Y1011174D01*
Y1012698D01*
Y1014222D01*
Y1015746D01*
Y1017270D01*
Y1018794D01*
Y1020318D01*
Y1021842D01*
Y1023366D01*
Y1024890D01*
Y1026414D01*
Y1027938D01*
Y1029462D01*
Y1030986D01*
Y1032510D01*
Y1034034D01*
Y1035558D01*
Y1037082D01*
Y1038606D01*
Y1040130D01*
Y1041654D01*
Y1043178D01*
Y1044702D01*
Y1046226D01*
Y1047750D01*
Y1049274D01*
Y1050798D01*
Y1052322D01*
Y1053846D01*
Y1055370D01*
Y1056894D01*
Y1058418D01*
Y1059942D01*
Y1061466D01*
Y1062990D01*
Y1064514D01*
Y1066038D01*
Y1067562D01*
Y1069086D01*
Y1070610D01*
Y1072134D01*
Y1073658D01*
Y1075182D01*
Y1076706D01*
Y1078230D01*
Y1079754D01*
Y1081278D01*
Y1082802D01*
Y1084326D01*
Y1085850D01*
Y1087374D01*
Y1088898D01*
Y1090422D01*
Y1091946D01*
Y1093470D01*
Y1094994D01*
Y1096518D01*
Y1098042D01*
Y1099566D01*
Y1101090D01*
Y1102614D01*
Y1104138D01*
Y1105662D01*
Y1107186D01*
Y1108710D01*
Y1110234D01*
Y1111758D01*
Y1113282D01*
Y1114806D01*
Y1116330D01*
Y1117854D01*
Y1119378D01*
Y1120902D01*
Y1122426D01*
Y1123950D01*
Y1125474D01*
Y1126998D01*
Y1128522D01*
Y1130046D01*
Y1131570D01*
Y1133094D01*
Y1134618D01*
Y1136142D01*
Y1137666D01*
Y1139190D01*
Y1140714D01*
Y1142238D01*
Y1143762D01*
Y1145286D01*
Y1146810D01*
Y1148334D01*
Y1149858D01*
Y1151382D01*
Y1152906D01*
Y1154430D01*
Y1155954D01*
Y1157478D01*
Y1159002D01*
Y1160526D01*
Y1162050D01*
Y1163574D01*
Y1165098D01*
Y1166622D01*
Y1168146D01*
Y1169670D01*
Y1171194D01*
Y1172718D01*
Y1174242D01*
Y1175766D01*
Y1177290D01*
Y1178814D01*
Y1180338D01*
Y1181862D01*
Y1183386D01*
Y1184910D01*
Y1186434D01*
Y1187958D01*
Y1189482D01*
Y1191006D01*
Y1192530D01*
Y1194054D01*
Y1195578D01*
Y1197102D01*
Y1198626D01*
Y1200150D01*
Y1201674D01*
Y1203198D01*
Y1204722D01*
Y1206246D01*
Y1207770D01*
Y1209294D01*
Y1210818D01*
Y1212342D01*
Y1213866D01*
Y1215390D01*
Y1216914D01*
Y1218438D01*
Y1219962D01*
Y1221486D01*
Y1223010D01*
Y1224534D01*
Y1226058D01*
Y1227582D01*
Y1229106D01*
Y1230630D01*
Y1232154D01*
Y1233678D01*
Y1235202D01*
Y1236726D01*
Y1238250D01*
Y1239774D01*
Y1241298D01*
Y1242822D01*
Y1244346D01*
Y1245870D01*
Y1247394D01*
Y1248918D01*
Y1250442D01*
Y1251966D01*
X179832D01*
Y1250442D01*
D02*
G37*
D53*
X-1011400Y1284000D02*
G03*
X-1021400Y1284000I-5000J0D01*
G01*
D02*
G03*
X-1011400Y1284000I5000J0D01*
G01*
D54*
X-343100Y-911800D02*
G03*
X-343100Y-911800I-12500J0D01*
G01*
X262397Y-863602D02*
G03*
X262397Y-863602I-12500J0D01*
G01*
X-34197Y-660398D02*
G03*
X-34197Y-660398I-12500J0D01*
G01*
X348000Y914400D02*
G03*
X348000Y914400I-12500J0D01*
G01*
D55*
X534696Y-822802D02*
G03*
X534696Y-802802I0J10000D01*
G01*
D02*
G03*
X534696Y-822802I0J-10000D01*
G01*
X-1485699Y331499D02*
X-1310698D01*
X-1487964Y175299D02*
X-1312968D01*
X-911399Y1443999D02*
Y2018999D01*
X888602D01*
Y1443999D02*
Y2018999D01*
X1371600Y512704D02*
X1630604D01*
Y-461797D02*
Y512704D01*
X1112601Y-461797D02*
X1630604D01*
X1112601D02*
Y-355600D01*
X721099Y-1117602D02*
Y-731598D01*
X1006102D01*
Y-1249600D02*
Y-731598D01*
X863598Y-1249600D02*
X1006102D01*
X-605599Y-3106797D02*
X594399D01*
X-463298Y-1226801D02*
X452098D01*
X594399Y-3106797D02*
Y-1512800D01*
X-605599Y-3106797D02*
Y-1512800D01*
X-12605Y-783602D02*
X167399D01*
X-12605Y-943601D02*
X167399D01*
X35797Y-740401D02*
X215802D01*
X35797Y-580402D02*
X215802D01*
X-1168402Y-375200D02*
X-1025898D01*
Y375299D01*
X-1310901D02*
X-1025898D01*
X-1310901Y-254002D02*
Y375299D01*
X996401Y137003D02*
Y254000D01*
Y137003D02*
X1238900D01*
Y371003D01*
X1117600D02*
X1238900D01*
X417996Y834399D02*
X598001D01*
X417996Y994398D02*
X598001D01*
D56*
X626108Y-1009652D02*
X655064D01*
X767332Y-1225552D02*
X796288D01*
X626108D02*
X655064D01*
X626108D02*
Y-1009652D01*
X767332D02*
X796288D01*
Y-1225552D02*
Y-1009652D01*
X930905Y57145D02*
X959861D01*
X1072129Y-158755D02*
X1101085D01*
X930905D02*
X959861D01*
X930905D02*
Y57145D01*
X1072129D02*
X1101085D01*
Y-158755D02*
Y57145D01*
X-796294Y-857253D02*
X-767338D01*
X-655070Y-1073153D02*
X-626114D01*
X-796294D02*
X-767338D01*
X-796294D02*
Y-857253D01*
X-655070D02*
X-626114D01*
Y-1073153D02*
Y-857253D01*
X-1507492Y-135892D02*
X-1478536D01*
X-1366268Y-351792D02*
X-1337312D01*
X-1507492D02*
X-1478536D01*
X-1507492D02*
Y-135892D01*
X-1366268D02*
X-1337312D01*
Y-351792D02*
Y-135892D01*
X664210Y-745490D02*
Y-716534D01*
X880110Y-604266D02*
Y-575310D01*
Y-745490D02*
Y-716534D01*
X664210Y-745490D02*
X880110D01*
X664210Y-604266D02*
Y-575310D01*
X880110D01*
X1083308Y-135892D02*
X1112264D01*
X1224532Y-351792D02*
X1253488D01*
X1083308D02*
X1112264D01*
X1083308D02*
Y-135892D01*
X1224532D02*
X1253488D01*
Y-351792D02*
Y-135892D01*
D57*
X668901Y-1357630D02*
X753540Y-1272991D01*
Y-1357630D02*
X668901Y-1272991D01*
X711221Y-1357630D02*
Y-1272991D01*
X753540Y-1315310D02*
X668901D01*
X973701Y-290830D02*
X1058340Y-206191D01*
Y-290830D02*
X973701Y-206191D01*
X1016021Y-290830D02*
Y-206191D01*
X1058340Y-248510D02*
X973701D01*
X-753499Y-1205230D02*
X-668860Y-1120591D01*
Y-1205230D02*
X-753499Y-1120591D01*
X-711179Y-1205230D02*
Y-1120591D01*
X-668860Y-1162910D02*
X-753499D01*
X-1464697Y-483868D02*
X-1380058Y-399229D01*
Y-483868D02*
X-1464697Y-399229D01*
X-1422378Y-483868D02*
Y-399229D01*
X-1380058Y-441549D02*
X-1464697D01*
X1012188Y-702696D02*
X927549Y-618057D01*
X1012188D02*
X927549Y-702696D01*
X1012188Y-660376D02*
X927549D01*
X969869Y-618057D02*
Y-702696D01*
X1126103Y-483868D02*
X1210742Y-399229D01*
Y-483868D02*
X1126103Y-399229D01*
X1168422Y-483868D02*
Y-399229D01*
X1210742Y-441549D02*
X1126103D01*
X-852110Y-1191499D02*
X-848241Y-1195368D01*
X-852110Y-1199238D01*
X-855980Y-1195368D01*
Y-1191499D01*
X-852110Y-1183759D01*
X-848241Y-1179889D01*
X-836632Y-1176020D01*
X-821153D01*
X-809544Y-1179889D01*
X-805675Y-1187629D01*
Y-1199238D01*
X-809544Y-1206977D01*
X-821153Y-1210847D01*
X-832762D01*
X-821153Y-1176020D02*
X-813414Y-1179889D01*
X-809544Y-1187629D01*
Y-1199238D01*
X-813414Y-1206977D01*
X-821153Y-1210847D01*
X-813414Y-1214716D01*
X-805675Y-1222456D01*
X-801805Y-1230195D01*
Y-1241804D01*
X-805675Y-1249543D01*
X-809544Y-1253413D01*
X-821153Y-1257282D01*
X-836632D01*
X-848241Y-1253413D01*
X-852110Y-1249543D01*
X-855980Y-1241804D01*
Y-1237934D01*
X-852110Y-1234065D01*
X-848241Y-1237934D01*
X-852110Y-1241804D01*
X-809544Y-1218586D02*
X-805675Y-1230195D01*
Y-1241804D01*
X-809544Y-1249543D01*
X-813414Y-1253413D01*
X-821153Y-1257282D01*
X-782070Y-1176020D02*
X-754982Y-1257282D01*
X-778200Y-1176020D02*
X-754982Y-1245674D01*
X-727895Y-1176020D02*
X-754982Y-1257282D01*
X-789809Y-1176020D02*
X-766591D01*
X-743373D02*
X-720155D01*
X-705838Y-1191499D02*
X-701968Y-1195368D01*
X-705838Y-1199238D01*
X-709707Y-1195368D01*
Y-1191499D01*
X-705838Y-1183759D01*
X-701968Y-1179889D01*
X-690359Y-1176020D01*
X-674881D01*
X-663271Y-1179889D01*
X-659402Y-1187629D01*
Y-1199238D01*
X-663271Y-1206977D01*
X-674881Y-1210847D01*
X-686489D01*
X-674881Y-1176020D02*
X-667141Y-1179889D01*
X-663271Y-1187629D01*
Y-1199238D01*
X-667141Y-1206977D01*
X-674881Y-1210847D01*
X-667141Y-1214716D01*
X-659402Y-1222456D01*
X-655532Y-1230195D01*
Y-1241804D01*
X-659402Y-1249543D01*
X-663271Y-1253413D01*
X-674881Y-1257282D01*
X-690359D01*
X-701968Y-1253413D01*
X-705838Y-1249543D01*
X-709707Y-1241804D01*
Y-1237934D01*
X-705838Y-1234065D01*
X-701968Y-1237934D01*
X-705838Y-1241804D01*
X-663271Y-1218586D02*
X-659402Y-1230195D01*
Y-1241804D01*
X-663271Y-1249543D01*
X-667141Y-1253413D01*
X-674881Y-1257282D01*
X671890Y-1191499D02*
X675759Y-1195368D01*
X671890Y-1199238D01*
X668020Y-1195368D01*
Y-1191499D01*
X671890Y-1183759D01*
X675759Y-1179889D01*
X687368Y-1176020D01*
X702847D01*
X714456Y-1179889D01*
X718325Y-1187629D01*
Y-1199238D01*
X714456Y-1206977D01*
X702847Y-1210847D01*
X691238D01*
X702847Y-1176020D02*
X710586Y-1179889D01*
X714456Y-1187629D01*
Y-1199238D01*
X710586Y-1206977D01*
X702847Y-1210847D01*
X710586Y-1214716D01*
X718325Y-1222456D01*
X722195Y-1230195D01*
Y-1241804D01*
X718325Y-1249543D01*
X714456Y-1253413D01*
X702847Y-1257282D01*
X687368D01*
X675759Y-1253413D01*
X671890Y-1249543D01*
X668020Y-1241804D01*
Y-1237934D01*
X671890Y-1234065D01*
X675759Y-1237934D01*
X671890Y-1241804D01*
X714456Y-1218586D02*
X718325Y-1230195D01*
Y-1241804D01*
X714456Y-1249543D01*
X710586Y-1253413D01*
X702847Y-1257282D01*
X741930Y-1176020D02*
X769018Y-1257282D01*
X745800Y-1176020D02*
X769018Y-1245674D01*
X796105Y-1176020D02*
X769018Y-1257282D01*
X734191Y-1176020D02*
X757409D01*
X780627D02*
X803845D01*
X818162Y-1191499D02*
X822032Y-1195368D01*
X818162Y-1199238D01*
X814293Y-1195368D01*
Y-1191499D01*
X818162Y-1183759D01*
X822032Y-1179889D01*
X833641Y-1176020D01*
X849119D01*
X860729Y-1179889D01*
X864598Y-1187629D01*
Y-1199238D01*
X860729Y-1206977D01*
X849119Y-1210847D01*
X837511D01*
X849119Y-1176020D02*
X856859Y-1179889D01*
X860729Y-1187629D01*
Y-1199238D01*
X856859Y-1206977D01*
X849119Y-1210847D01*
X856859Y-1214716D01*
X864598Y-1222456D01*
X868468Y-1230195D01*
Y-1241804D01*
X864598Y-1249543D01*
X860729Y-1253413D01*
X849119Y-1257282D01*
X833641D01*
X822032Y-1253413D01*
X818162Y-1249543D01*
X814293Y-1241804D01*
Y-1237934D01*
X818162Y-1234065D01*
X822032Y-1237934D01*
X818162Y-1241804D01*
X860729Y-1218586D02*
X864598Y-1230195D01*
Y-1241804D01*
X860729Y-1249543D01*
X856859Y-1253413D01*
X849119Y-1257282D01*
X-1500901Y-90110D02*
X-1497032Y-86241D01*
X-1493162Y-90110D01*
X-1497032Y-93980D01*
X-1500901D01*
X-1508641Y-90110D01*
X-1512511Y-86241D01*
X-1516380Y-74632D01*
Y-59153D01*
X-1512511Y-47544D01*
X-1504771Y-43675D01*
X-1493162D01*
X-1485423Y-47544D01*
X-1481553Y-59153D01*
Y-70762D01*
X-1516380Y-59153D02*
X-1512511Y-51414D01*
X-1504771Y-47544D01*
X-1493162D01*
X-1485423Y-51414D01*
X-1481553Y-59153D01*
X-1477684Y-51414D01*
X-1469944Y-43675D01*
X-1462205Y-39805D01*
X-1450596D01*
X-1442857Y-43675D01*
X-1438987Y-47544D01*
X-1435118Y-59153D01*
Y-74632D01*
X-1438987Y-86241D01*
X-1442857Y-90110D01*
X-1450596Y-93980D01*
X-1454466D01*
X-1458335Y-90110D01*
X-1454466Y-86241D01*
X-1450596Y-90110D01*
X-1473814Y-47544D02*
X-1462205Y-43675D01*
X-1450596D01*
X-1442857Y-47544D01*
X-1438987Y-51414D01*
X-1435118Y-59153D01*
X-1516380Y-20070D02*
X-1435118Y7018D01*
X-1516380Y-16200D02*
X-1446726Y7018D01*
X-1516380Y34105D02*
X-1435118Y7018D01*
X-1516380Y-27809D02*
Y-4591D01*
Y18627D02*
Y41845D01*
X-1500901Y56162D02*
X-1497032Y60032D01*
X-1493162Y56162D01*
X-1497032Y52293D01*
X-1500901D01*
X-1508641Y56162D01*
X-1512511Y60032D01*
X-1516380Y71641D01*
Y87119D01*
X-1512511Y98729D01*
X-1504771Y102598D01*
X-1493162D01*
X-1485423Y98729D01*
X-1481553Y87119D01*
Y75511D01*
X-1516380Y87119D02*
X-1512511Y94859D01*
X-1504771Y98729D01*
X-1493162D01*
X-1485423Y94859D01*
X-1481553Y87119D01*
X-1477684Y94859D01*
X-1469944Y102598D01*
X-1462205Y106468D01*
X-1450596D01*
X-1442857Y102598D01*
X-1438987Y98729D01*
X-1435118Y87119D01*
Y71641D01*
X-1438987Y60032D01*
X-1442857Y56162D01*
X-1450596Y52293D01*
X-1454466D01*
X-1458335Y56162D01*
X-1454466Y60032D01*
X-1450596Y56162D01*
X-1473814Y98729D02*
X-1462205Y102598D01*
X-1450596D01*
X-1442857Y98729D01*
X-1438987Y94859D01*
X-1435118Y87119D01*
X1496299Y-90110D02*
X1500168Y-86241D01*
X1504038Y-90110D01*
X1500168Y-93980D01*
X1496299D01*
X1488559Y-90110D01*
X1484689Y-86241D01*
X1480820Y-74632D01*
Y-59153D01*
X1484689Y-47544D01*
X1492429Y-43675D01*
X1504038D01*
X1511777Y-47544D01*
X1515647Y-59153D01*
Y-70762D01*
X1480820Y-59153D02*
X1484689Y-51414D01*
X1492429Y-47544D01*
X1504038D01*
X1511777Y-51414D01*
X1515647Y-59153D01*
X1519516Y-51414D01*
X1527256Y-43675D01*
X1534995Y-39805D01*
X1546604D01*
X1554343Y-43675D01*
X1558213Y-47544D01*
X1562082Y-59153D01*
Y-74632D01*
X1558213Y-86241D01*
X1554343Y-90110D01*
X1546604Y-93980D01*
X1542734D01*
X1538865Y-90110D01*
X1542734Y-86241D01*
X1546604Y-90110D01*
X1523386Y-47544D02*
X1534995Y-43675D01*
X1546604D01*
X1554343Y-47544D01*
X1558213Y-51414D01*
X1562082Y-59153D01*
X1480820Y-20070D02*
X1562082Y7018D01*
X1480820Y-16200D02*
X1550474Y7018D01*
X1480820Y34105D02*
X1562082Y7018D01*
X1480820Y-27809D02*
Y-4591D01*
Y18627D02*
Y41845D01*
X1496299Y56162D02*
X1500168Y60032D01*
X1504038Y56162D01*
X1500168Y52293D01*
X1496299D01*
X1488559Y56162D01*
X1484689Y60032D01*
X1480820Y71641D01*
Y87119D01*
X1484689Y98729D01*
X1492429Y102598D01*
X1504038D01*
X1511777Y98729D01*
X1515647Y87119D01*
Y75511D01*
X1480820Y87119D02*
X1484689Y94859D01*
X1492429Y98729D01*
X1504038D01*
X1511777Y94859D01*
X1515647Y87119D01*
X1519516Y94859D01*
X1527256Y102598D01*
X1534995Y106468D01*
X1546604D01*
X1554343Y102598D01*
X1558213Y98729D01*
X1562082Y87119D01*
Y71641D01*
X1558213Y60032D01*
X1554343Y56162D01*
X1546604Y52293D01*
X1542734D01*
X1538865Y56162D01*
X1542734Y60032D01*
X1546604Y56162D01*
X1523386Y98729D02*
X1534995Y102598D01*
X1546604D01*
X1554343Y98729D01*
X1558213Y94859D01*
X1562082Y87119D01*
%TF.MD5,addd1bf66e6cd7307f491ff3ed4e36e4*%
M02*
