%TF.GenerationSoftware,Altium Limited,Altium Designer,25.8.1 (18)*%
G04 Layer_Color=16711935*
%FSLAX45Y45*%
%MOMM*%
%TF.SameCoordinates,DBAD572D-54B9-4E5B-BD18-095DBB1A99D2*%
%TF.FilePolarity,Negative*%
%TF.FileFunction,Soldermask,Bot*%
%TF.Part,Single*%
G01*
G75*
%TA.AperFunction,SMDPad,CuDef*%
%ADD43R,0.55880X0.55880*%
%ADD46R,0.55880X0.55880*%
%ADD47R,0.85000X0.30000*%
%ADD48R,0.30000X0.85000*%
%ADD50R,5.70000X5.70000*%
%ADD61R,0.85320X1.10320*%
%ADD62R,1.18320X1.08320*%
G04:AMPARAMS|DCode=68|XSize=1.2032mm|YSize=1.2032mm|CornerRadius=0.6016mm|HoleSize=0mm|Usage=FLASHONLY|Rotation=0.000|XOffset=0mm|YOffset=0mm|HoleType=Round|Shape=RoundedRectangle|*
%AMROUNDEDRECTD68*
21,1,1.20320,0.00000,0,0,0.0*
21,1,0.00000,1.20320,0,0,0.0*
1,1,1.20320,0.00000,0.00000*
1,1,1.20320,0.00000,0.00000*
1,1,1.20320,0.00000,0.00000*
1,1,1.20320,0.00000,0.00000*
%
%ADD68ROUNDEDRECTD68*%
G04:AMPARAMS|DCode=69|XSize=1.2032mm|YSize=1.2032mm|CornerRadius=0.6016mm|HoleSize=0mm|Usage=FLASHONLY|Rotation=300.000|XOffset=0mm|YOffset=0mm|HoleType=Round|Shape=RoundedRectangle|*
%AMROUNDEDRECTD69*
21,1,1.20320,0.00000,0,0,300.0*
21,1,0.00000,1.20320,0,0,300.0*
1,1,1.20320,0.00000,0.00000*
1,1,1.20320,0.00000,0.00000*
1,1,1.20320,0.00000,0.00000*
1,1,1.20320,0.00000,0.00000*
%
%ADD69ROUNDEDRECTD69*%
G04:AMPARAMS|DCode=71|XSize=1.2032mm|YSize=1.2032mm|CornerRadius=0.6016mm|HoleSize=0mm|Usage=FLASHONLY|Rotation=240.000|XOffset=0mm|YOffset=0mm|HoleType=Round|Shape=RoundedRectangle|*
%AMROUNDEDRECTD71*
21,1,1.20320,0.00000,0,0,240.0*
21,1,0.00000,1.20320,0,0,240.0*
1,1,1.20320,0.00000,0.00000*
1,1,1.20320,0.00000,0.00000*
1,1,1.20320,0.00000,0.00000*
1,1,1.20320,0.00000,0.00000*
%
%ADD71ROUNDEDRECTD71*%
%ADD73R,0.98320X1.18320*%
%TA.AperFunction,ComponentPad*%
%ADD74O,1.70320X3.20320*%
%ADD75C,1.62820*%
%ADD76R,1.62820X1.62820*%
%ADD77R,1.62820X1.62820*%
%ADD78C,0.70320*%
%ADD79R,1.92820X1.92820*%
%ADD80C,1.92820*%
%ADD81R,1.92820X1.92820*%
%TA.AperFunction,ViaPad*%
%ADD82C,1.47320*%
%TA.AperFunction,SMDPad,CuDef*%
%ADD83R,2.50320X2.00320*%
%ADD84R,1.22320X1.67320*%
%ADD85R,1.50320X1.15320*%
%ADD86R,2.10320X0.60325*%
%ADD87R,1.10320X0.85320*%
%ADD88R,1.18320X0.98320*%
%ADD89R,1.20320X1.00320*%
%ADD90R,1.15320X1.50320*%
G36*
X-967811Y-1333215D02*
X-952880Y-1324100D01*
X-920253Y-1311473D01*
X-885900Y-1304850D01*
X-850917Y-1304442D01*
X-816419Y-1310262D01*
X-783506Y-1322126D01*
X-753228Y-1339653D01*
X-726550Y-1362287D01*
X-704323Y-1389304D01*
X-687255Y-1419844D01*
X-675891Y-1452932D01*
X-670593Y-1487514D01*
X-671062Y-1505001D01*
Y-1505001D01*
X-868880D01*
X-967811Y-1333215D01*
D02*
G37*
G36*
X-1390796Y-601231D02*
X-1375875Y-592024D01*
X-1342970Y-579902D01*
X-1308313Y-574557D01*
X-1273285Y-576201D01*
X-1239281Y-584768D01*
X-1207656Y-599919D01*
X-1179669Y-621048D01*
X-1156437Y-647314D01*
X-1138883Y-677671D01*
X-1127708Y-710910D01*
X-1123357Y-745706D01*
X-1126003Y-780672D01*
X-1135541Y-814417D01*
X-1151590Y-845596D01*
X-1173512Y-872966D01*
X-1200432Y-895437D01*
X-1215856Y-903776D01*
X-1215856Y-903775D01*
X-1390796Y-601231D01*
D02*
G37*
G36*
X-1638198Y171702D02*
X-1622840Y163329D01*
X-1595590Y141387D01*
X-1572678Y114948D01*
X-1554833Y84856D01*
X-1542625Y52069D01*
X-1536442Y17634D01*
X-1536483Y-17351D01*
X-1542745Y-51772D01*
X-1555029Y-84530D01*
X-1572944Y-114581D01*
X-1595917Y-140966D01*
X-1623217Y-162845D01*
X-1638595Y-171183D01*
Y-171183D01*
X-1737504Y133D01*
X-1638198Y171702D01*
D02*
G37*
G36*
X-1216369Y903348D02*
X-1200934Y895030D01*
X-1173984Y872594D01*
X-1152026Y845253D01*
X-1135936Y814096D01*
X-1126354Y780363D01*
X-1123662Y745400D01*
X-1127967Y710599D01*
X-1139098Y677345D01*
X-1156611Y646965D01*
X-1179809Y620668D01*
X-1207768Y599502D01*
X-1239373Y584310D01*
X-1273365Y575698D01*
X-1308392Y574007D01*
X-1343055Y579307D01*
X-1375976Y591385D01*
X-1390910Y600573D01*
X-1390910D01*
X-1216369Y903348D01*
D02*
G37*
G36*
X670413Y-1504917D02*
X669985Y-1487430D01*
X675363Y-1452860D01*
X686803Y-1419798D01*
X703942Y-1389298D01*
X726231Y-1362332D01*
X752962Y-1339760D01*
X783280Y-1322303D01*
X816220Y-1310516D01*
X850732Y-1304775D01*
X885714Y-1305264D01*
X920051Y-1311966D01*
X952649Y-1324669D01*
X967559Y-1333818D01*
D01*
X868649Y-1505134D01*
X670413Y-1504917D01*
D02*
G37*
G36*
X1216367Y-904350D02*
X1200932Y-896032D01*
X1173982Y-873596D01*
X1152024Y-846255D01*
X1135934Y-815098D01*
X1126352Y-781366D01*
X1123660Y-746403D01*
X1127965Y-711601D01*
X1139096Y-678348D01*
X1156609Y-647968D01*
X1179807Y-621671D01*
X1207766Y-600505D01*
X1239371Y-585313D01*
X1273363Y-576700D01*
X1308390Y-575010D01*
X1343053Y-580310D01*
X1375974Y-592388D01*
X1390908Y-601576D01*
Y-601576D01*
X1216367Y-904350D01*
D02*
G37*
G36*
X1638198Y-171702D02*
X1622840Y-163329D01*
X1595590Y-141387D01*
X1572678Y-114948D01*
X1554833Y-84856D01*
X1542625Y-52070D01*
X1536442Y-17635D01*
X1536483Y17351D01*
X1542745Y51771D01*
X1555029Y84529D01*
X1572943Y114580D01*
X1595917Y140966D01*
X1623217Y162845D01*
X1638595Y171183D01*
X1638595Y171183D01*
X1737504Y-133D01*
X1638198Y-171702D01*
D02*
G37*
G36*
X1390796Y601231D02*
X1375875Y592023D01*
X1342970Y579902D01*
X1308313Y574556D01*
X1273284Y576200D01*
X1239280Y584768D01*
X1207655Y599919D01*
X1179669Y621048D01*
X1156436Y647314D01*
X1138883Y677671D01*
X1127708Y710910D01*
X1123357Y745705D01*
X1126003Y780672D01*
X1135541Y814417D01*
X1151590Y845595D01*
X1173511Y872965D01*
X1200432Y895437D01*
X1215856Y903775D01*
D01*
X1390796Y601231D01*
D02*
G37*
D43*
X520698Y-2D02*
D03*
X609598D02*
D03*
D46*
X-152402Y-209552D02*
D03*
X50798D02*
D03*
Y-298452D02*
D03*
X-50802Y-209552D02*
D03*
Y-298452D02*
D03*
X-152402D02*
D03*
X152398Y-209552D02*
D03*
X253998D02*
D03*
Y-298452D02*
D03*
X152398D02*
D03*
D47*
X294201Y-637801D02*
D03*
Y-537801D02*
D03*
Y-587798D02*
D03*
X-395800Y-1087802D02*
D03*
Y-837800D02*
D03*
X294201D02*
D03*
X-395800Y-537801D02*
D03*
Y-587798D02*
D03*
Y-637801D02*
D03*
Y-687798D02*
D03*
Y-737800D02*
D03*
Y-787798D02*
D03*
Y-887798D02*
D03*
Y-937800D02*
D03*
Y-987797D02*
D03*
Y-1037800D02*
D03*
X294201Y-1087802D02*
D03*
Y-1037800D02*
D03*
Y-987797D02*
D03*
Y-937800D02*
D03*
Y-887798D02*
D03*
Y-787798D02*
D03*
Y-737800D02*
D03*
Y-687798D02*
D03*
D48*
X-275800Y-1157800D02*
D03*
X-325797D02*
D03*
X224199Y-467798D02*
D03*
X174202D02*
D03*
X124199D02*
D03*
X74202D02*
D03*
X24199D02*
D03*
X-25798D02*
D03*
X-75800D02*
D03*
X-125798D02*
D03*
X-175800D02*
D03*
X-225798D02*
D03*
X-275800D02*
D03*
X-325797D02*
D03*
X-225798Y-1157800D02*
D03*
X-175800D02*
D03*
X-125798D02*
D03*
X-75800D02*
D03*
X-25798D02*
D03*
X24199D02*
D03*
X74202D02*
D03*
X124199D02*
D03*
X174202D02*
D03*
X224199D02*
D03*
D50*
X-50802Y-812802D02*
D03*
D61*
X-762002Y-1219202D02*
D03*
X-907000D02*
D03*
D62*
X-660402Y672601D02*
D03*
Y546601D02*
D03*
D68*
X-826010Y-1431012D02*
D03*
X-1239014Y-715012D02*
D03*
X1239010Y715008D02*
D03*
D69*
X1651989Y-2D02*
D03*
X-1651992D02*
D03*
X-1239014Y715008D02*
D03*
X1239010Y-716012D02*
D03*
D71*
X826006Y-1431012D02*
D03*
D73*
X438001Y-609602D02*
D03*
X578001D02*
D03*
X488801Y355598D02*
D03*
X628801D02*
D03*
D74*
X564401Y-1326801D02*
D03*
X-575601D02*
D03*
D75*
X1371600Y406400D02*
D03*
Y152400D02*
D03*
Y-101600D02*
D03*
X863598Y-863602D02*
D03*
D76*
X1371600Y-355600D02*
D03*
D77*
X863598Y-1117602D02*
D03*
D78*
X-230598Y-1326801D02*
D03*
X219398D02*
D03*
D79*
X-1168402Y-254002D02*
D03*
D80*
Y-2D02*
D03*
Y253998D02*
D03*
D81*
X1117600Y254000D02*
D03*
D82*
X-1422402Y-12D02*
D03*
X-1099822Y-723912D02*
D03*
X-373382Y-1351292D02*
D03*
X1115058Y-535952D02*
D03*
X1259838Y27928D02*
D03*
X647698Y129528D02*
D03*
X-190502D02*
D03*
X-353062Y195568D02*
D03*
X-431802Y805168D02*
D03*
X-904242Y-825512D02*
D03*
D83*
X-609602Y972600D02*
D03*
Y1262602D02*
D03*
D84*
X478798Y-152402D02*
D03*
X638798D02*
D03*
D85*
X457198Y-355602D02*
D03*
X637198D02*
D03*
D86*
X558798Y-743612D02*
D03*
Y-863602D02*
D03*
Y-983591D02*
D03*
D87*
X-587900Y275700D02*
D03*
Y130702D02*
D03*
D88*
X-508002Y539601D02*
D03*
Y679601D02*
D03*
X-304802Y1187601D02*
D03*
X-558802Y-1054401D02*
D03*
X-304802Y1047601D02*
D03*
X-558802Y-914402D02*
D03*
D89*
X-863602Y-74998D02*
D03*
Y75000D02*
D03*
D90*
X-762002Y-1016002D02*
D03*
Y-836002D02*
D03*
%TF.MD5,71281480f6b93a6e18d335ad6f74a21b*%
M02*
