M48
;Layer_Color=9474304
;FILE_FORMAT=4:4
METRIC,LZ
;TYPE=PLATED
T01F00S00C0.7112
T02F00S00C0.9500
T04F00S00C1.1500
;TYPE=NON_PLATED
T05F00S00C1.1000
%
T01
X-00109982Y-00072391
X-00090424Y-00082551
X-00037338Y-00135129
X-00035306Y00019557
X-0001905Y00012953
X0006477
X00125984Y00002793
X00111506Y-00053595
X-0014224Y-00000001
X-0004318Y00080517
T02
X0008636Y-0011176
Y-0008636
X0013716Y-0003556
Y-0001016
Y0001524
Y0004064
T04
X-0011684Y-000254
Y-0
Y000254
X0011176Y000254
T05
X-0002306Y-0013268
X0002194
M30
